<?xml version="1.0" encoding="utf-8"?>
<!-- Generator: Adobe Illustrator 18.1.0, SVG Export Plug-In . SVG Version: 6.00 Build 0)  -->
<svg version="1.1" id="Layer_2" xmlns="http://www.w3.org/2000/svg" xmlns:xlink="http://www.w3.org/1999/xlink" x="0px" y="0px"
	 width="1080px" height="1920px" viewBox="0 0 1080 1920" enable-background="new 0 0 1080 1920" xml:space="preserve">
<pattern  width="334.2" height="190.2" patternUnits="userSpaceOnUse" id="Bugaboo" viewBox="125.7 -361.6 334.2 190.2" overflow="visible">
	<g>
		<polygon fill="none" points="125.7,-361.6 459.9,-361.6 459.9,-171.5 125.7,-171.5 		"/>
		<g>
			<path fill="#00BAC6" d="M438.3-133.6c-1,2.9-4.3,4.4-7.2,3.4c-0.7-0.2-16.6-9-32.6-16.6c-0.5,1-1,2-1.7,2.9
				c0,0,46.4,49,47.6,50.4c1,1.1,1.4,2.6,1.3,4.1c-0.1,1.5-0.8,2.8-2,3.8c-1.1,1-2.6,1.4-4.1,1.3c-1.5-0.1-2.8-0.8-3.8-2
				c-1.1-1.4-42.3-54.7-42.3-54.7c-1.2,0.7-2.5,1.3-3.9,1.6c0,0,1.1,30.9,1,32.5c0,1.5-0.7,2.9-1.7,3.9c-1.1,1-2.5,1.6-4,1.5
				c-0.1,0-0.2,0-0.3,0c-3-0.2-5.2-2.8-5.1-5.7c0-1.5,4.5-32.1,4.5-32.1c-1.1-0.2-2.2-0.6-3.2-1.1c0,0-25.2,44.4-26.4,46.1
				c-1.1,1.7-3.1,2.6-5.1,2.4c-1-0.1-1.9-0.4-2.7-1c-1.2-0.9-2.1-2.1-2.3-3.6c-0.3-1.5,0.1-3,0.9-4.2c1.2-1.8,33.5-41.2,33.5-41.2
				c-0.4-0.3-0.8-0.7-1.2-1.1c-10.2,10.8-25.5,26.9-26.3,27.6c-2.4,2-5.9,1.7-7.9-0.7c-2-2.4-1.7-5.9,0.7-7.9
				c0.8-0.7,19.4-13.1,31.8-21.4c-0.1-0.2-0.3-0.4-0.4-0.6c0,0-45.5,18.2-47.2,18.8c-0.7,0.2-1.4,0.3-2.2,0.2
				c-2.3-0.2-4.2-1.7-4.9-3.9c-0.5-1.4-0.3-2.9,0.4-4.3c0.7-1.3,1.8-2.3,3.3-2.8c1.7-0.6,49.3-12,49.3-12c-0.2-1-0.2-2.1-0.1-3.2
				c0-0.3,0.1-0.6,0.1-0.9c0,0-37.5-6.6-39.4-7.2c-3-0.8-4.7-3.9-3.9-6.9c0.7-2.6,3.2-4.3,5.9-4.1c0.4,0,0.7,0.1,1.1,0.2
				c1.9,0.5,37.3,14.6,37.3,14.6c0.7-1.5,1.6-2.8,2.8-3.9c0,0-44.1-46.3-45.5-47.9c-1-1.1-1.4-2.6-1.3-4.1c0.1-1.5,0.8-2.8,2-3.8
				c1.1-1,2.6-1.4,4.1-1.3c1.5,0.1,2.8,0.8,3.8,2c1.4,1.6,38.9,53.6,38.9,53.6c0.5-0.3,1.1-0.6,1.7-0.9
				c-7.2-15.7-19.5-42.8-19.8-43.5c-1-2.9,0.6-6.1,3.5-7.1c2.9-1,6.1,0.6,7.1,3.5c0.2,0.7,7.3,29.6,11.4,46.4
				c0.9-0.2,1.8-0.4,2.7-0.4c0,0-1.1-31.1-1-33c0.3-3.1,3-5.4,6.1-5.1c3.1,0.3,5.4,3,5.1,6.1c-0.2,1.9-6.5,32.5-6.5,32.5
				c1.1,0.3,2.2,0.8,3.1,1.3c0,0,26.4-46.3,27.6-48.1c1.1-1.7,3.1-2.6,5.1-2.4c1,0.1,1.9,0.4,2.7,1c2.5,1.7,3.2,5.2,1.5,7.8
				c-1.2,1.8-34.8,43.3-34.8,43.3c1.4,1.3,2.6,2.9,3.3,4.7c0,0,45-11.8,46.6-12.1c0.5-0.1,1-0.1,1.5-0.1c2.5,0.2,4.6,2.1,5,4.5
				c0.3,1.5,0,3-0.9,4.2c-0.8,1.2-2.1,2.1-3.6,2.3c-1.6,0.3-47.7,6.4-47.7,6.4c0,0.2,0,0.4,0,0.6c0,0.6-0.1,1.1-0.3,1.6
				c17.1,4.5,34.9,8.2,35.6,8.4C437.8-139.7,439.4-136.5,438.3-133.6z M396-151.1c0.4-5.1-3.4-9.6-8.4-10c-5.1-0.4-9.6,3.4-10,8.4
				c-0.4,5.1,3.4,9.6,8.4,10C391.1-142.2,395.6-146,396-151.1z"/>
			<path fill="#FFD400" d="M382.9-142.6c-2.3-4-0.9-9.1,3-11.4c0.9-0.5,24.7-9.6,48.7-20.5c-0.8-1.5-1.3-3.1-1.7-4.7
				c0,0-87.7,5.7-90.4,5.7c-2.2,0-4.3-0.9-5.9-2.4c-1.6-1.6-2.4-3.7-2.4-5.9c0-2.2,0.9-4.3,2.4-5.9c1.6-1.6,3.7-2.4,5.9-2.4
				c2.6,0,90.2,4.5,90.2,4.5c0.3-2,0.9-4.1,1.8-5.9c0,0-36.2-28.4-37.9-29.9c-1.7-1.5-2.6-3.5-2.8-5.7c-0.1-2.2,0.6-4.4,2.1-6
				c0.1-0.1,0.2-0.2,0.3-0.4c3.1-3.1,8.1-3.3,11.4-0.3c1.7,1.5,32.1,35.9,32.1,35.9c1.3-1.1,2.8-1.9,4.3-2.5
				c0,0-26.3-71.2-27.1-74.2c-0.8-2.9,0-6,2.2-8.1c1-1,2.3-1.8,3.7-2.1c2.1-0.6,4.4-0.3,6.3,0.8c1.9,1.1,3.3,2.9,3.9,5
				c0.8,3.1,14.7,77.5,14.7,77.5c0.8-0.2,1.6-0.2,2.4-0.3c-2.5-21.9-6.1-54.7-6.1-56.3c0-4.6,3.7-8.3,8.3-8.3c4.6,0,8.3,3.7,8.3,8.3
				c0,1.6-3.7,34.7-6.2,56.6c0.4,0.1,0.7,0.1,1.1,0.2c0,0,22.9-69.1,23.9-71.6c0.4-1,1-1.9,1.8-2.7c2.4-2.4,5.9-3.1,9.1-1.8
				c2.1,0.8,3.7,2.4,4.5,4.5c0.9,2.1,0.9,4.3,0,6.4c-1,2.5-33.7,67.5-33.7,67.5c1.3,0.8,2.6,1.7,3.7,2.9c0.3,0.3,0.6,0.6,0.9,1
				c0,0,43.5-36.3,45.9-37.9c3.8-2.6,9-1.6,11.6,2.3c2.2,3.3,1.8,7.7-1,10.5c-0.4,0.4-0.8,0.7-1.2,1c-2.4,1.6-52.4,28.4-52.4,28.4
				c1,2.2,1.7,4.5,1.8,6.9c0,0,78.5-5.7,81.7-5.7c2.2,0,4.3,0.9,5.9,2.4c1.6,1.6,2.4,3.7,2.4,5.9c0,2.2-0.9,4.3-2.4,5.9
				c-1.6,1.6-3.7,2.4-5.9,2.4c-3.2,0-81.8-7.1-81.8-7.1c-0.1,0.9-0.3,1.9-0.6,2.8c24.8,6.9,67.3,18.8,68.3,19.2
				c4.3,1.7,6.4,6.5,4.8,10.8c-1.7,4.3-6.5,6.4-10.8,4.8c-1-0.4-40.6-20.1-63.6-31.6c-0.6,1.2-1.3,2.4-2.2,3.5
				c0,0,36.4,28.5,38.4,30.5c3.2,3.2,3.2,8.5,0,11.8c-3.2,3.2-8.5,3.2-11.8,0c-2-2-30.7-38.5-30.7-38.5c-1.4,1-2.9,1.7-4.5,2.3
				c0,0,22.6,56.2,23.5,59.3c0.8,2.9,0,6-2.1,8.1c-1,1-2.3,1.7-3.7,2.1c-4.4,1.2-9-1.4-10.2-5.8c-0.9-3.1-11-62.8-11-62.8
				c-2.8,0.4-5.7,0.2-8.5-0.7c0,0-29.8,62.5-30.9,64.5c-0.4,0.7-0.8,1.3-1.4,1.8c-2.6,2.6-6.7,3.2-10,1.3c-1.9-1.1-3.3-2.9-3.9-5
				c-0.6-2.1-0.3-4.4,0.8-6.3c1.2-2,38.4-60.3,38.4-60.3c-0.2-0.2-0.5-0.4-0.7-0.6c-0.6-0.6-1.1-1.2-1.6-1.9
				c-21.5,15.1-41.4,31.2-42.3,31.8C390.3-137.2,385.2-138.6,382.9-142.6z M441.9-173.2c5.4,5.4,14.1,5.4,19.5,0
				c5.4-5.4,5.4-14.1,0-19.5c-5.4-5.4-14.1-5.4-19.5,0C436.5-187.3,436.5-178.6,441.9-173.2z"/>
			<path fill="#A6CE39" d="M562.3-87.8c-2.9,2-6.9,1.3-8.9-1.6c-0.5-0.7-16.5-29.9-26.2-47.5c-1.1,0.7-2.3,1.2-3.5,1.5
				c0,0,6.9,32.7,7.1,34.7c0.1,1.7-0.4,3.3-1.5,4.6c-1.1,1.3-2.6,2.1-4.3,2.2c-1.7,0.1-3.3-0.4-4.6-1.5c-1.3-1.1-2.1-2.6-2.2-4.3
				c-0.2-2,0.7-35.2,0.7-35.2c-1.6-0.1-3.1-0.4-4.6-1.1c0,0-19.5,29.2-20.6,30.6c-1,1.4-2.5,2.2-4.2,2.5c-1.7,0.2-3.4-0.2-4.7-1.2
				c-0.1-0.1-0.2-0.2-0.3-0.2c-2.6-2.2-3-6-0.9-8.7c1.1-1.4,25.5-26.6,25.5-26.6c-0.9-1-1.6-2-2.2-3.1c0,0-52.7,24.2-55,25.1
				c-2.1,0.8-4.6,0.3-6.3-1.2c-0.8-0.7-1.5-1.7-1.9-2.7c-0.6-1.6-0.5-3.3,0.2-4.9c0.7-1.5,2-2.7,3.6-3.3
				c2.3-0.8,58.2-15.8,58.2-15.8c-0.2-0.6-0.3-1.2-0.4-1.8c-16.5,3.2-41.3,7.9-42.6,8c-3.5,0.3-6.6-2.4-6.8-5.9
				c-0.3-3.5,2.4-6.6,5.9-6.8c1.3-0.1,26.6,0.8,43.5,1.3c0-0.3,0-0.6,0.1-0.8c0,0-28.3-5-30.2-5.7c-0.8-0.3-1.5-0.7-2.2-1.2
				c-2-1.7-2.7-4.3-1.9-6.8c0.5-1.6,1.6-2.9,3.2-3.7c1.5-0.8,3.2-0.9,4.9-0.4c2,0.6,27.7,13.3,27.7,13.3c0.5-1,1.2-2.1,2-3
				c0.2-0.3,0.5-0.5,0.7-0.7c0,0-30.2-31-31.6-32.8c-2.2-2.7-1.7-6.8,1-8.9c2.4-1.9,5.8-1.8,8.1,0.1c0.3,0.3,0.6,0.6,0.9,0.9
				c1.4,1.7,24.7,38.3,24.7,38.3c1.6-0.9,3.3-1.5,5.1-1.8c0,0-7.3-37.2-7.4-39.6c-0.1-1.7,0.4-3.3,1.5-4.6c1.1-1.3,2.6-2.1,4.3-2.2
				c1.7-0.1,3.3,0.4,4.6,1.5c1.3,1.1,2.1,2.6,2.2,4.3c0.2,2.4-2.3,40.4-2.3,40.4c0.7,0,1.4,0.1,2.2,0.3
				c3.8-19.3,10.4-52.4,10.6-53.2c1-3.4,4.6-5.3,7.9-4.3c3.4,1,5.3,4.6,4.3,7.9c-0.2,0.8-12.9,32.1-20.3,50.3c1,0.4,1.9,0.9,2.8,1.5
				c0,0,13.4-22.3,14.8-23.9c2.3-2.7,6.3-3,9-0.7c2.7,2.3,3,6.3,0.7,9c-1.4,1.6-21.4,18.5-21.4,18.5c0.8,1,1.5,2.1,2,3.3
				c0,0,38.1-19.1,40.4-20c2.1-0.8,4.6-0.3,6.3,1.2c0.8,0.7,1.5,1.6,1.8,2.7c1.2,3.3-0.5,7-3.8,8.2c-2.3,0.8-43.8,10.7-43.8,10.7
				c0.5,2.1,0.5,4.3,0,6.5c0,0,35,12.3,36.6,13.1c0.5,0.2,1,0.6,1.4,0.9c2.2,1.9,2.8,4.9,1.6,7.5c-0.7,1.5-2,2.7-3.6,3.3
				c-1.6,0.6-3.3,0.5-4.9-0.2c-1.6-0.8-33.8-19-33.8-19c-0.1,0.2-0.3,0.4-0.4,0.6c-0.4,0.5-0.9,0.9-1.3,1.3
				c12.8,15.5,34,41.3,34.4,42C565.9-93.8,565.2-89.8,562.3-87.8z M527.7-142.6c3.8-4.4,3.3-11.1-1.2-14.8
				c-4.4-3.8-11.1-3.3-14.8,1.1c-3.8,4.4-3.3,11.1,1.2,14.8C517.3-137.7,524-138.2,527.7-142.6z"/>
			<path fill="#ED1C24" d="M478.1-222.8c-2.1,1.1-4.6,0.2-5.7-1.8c-0.2-0.5-8.3-21.2-13.2-33.7c-0.8,0.3-1.6,0.6-2.5,0.7
				c0,0,1.8,22.2,1.7,23.5c-0.1,1.1-0.6,2.2-1.4,2.9c-0.8,0.8-1.9,1.1-3.1,1.1c-1.1-0.1-2.2-0.6-2.9-1.4c-0.8-0.8-1.1-1.9-1.1-3.1
				c0.1-1.3,3.5-23.2,3.5-23.2c-1-0.2-2-0.6-3-1.1c0,0-15.4,17.6-16.2,18.5c-0.8,0.8-1.9,1.3-3,1.3c-1.1,0-2.2-0.4-3-1.2
				c-0.1-0.1-0.1-0.1-0.2-0.2c-1.5-1.7-1.4-4.2,0.1-5.8c0.8-0.8,19.1-15.4,19.1-15.4c-0.5-0.7-0.9-1.5-1.2-2.3
				c0,0-36.9,11.5-38.5,11.8c-1.5,0.3-3-0.2-4.1-1.3c-0.5-0.5-0.8-1.2-1-1.9c-0.2-1.1,0-2.2,0.6-3.2c0.6-1,1.6-1.6,2.7-1.9
				c1.6-0.3,39.8-5.4,39.8-5.4c-0.1-0.4-0.1-0.8-0.1-1.2c-11.2,0.7-28,1.7-28.8,1.6c-2.3-0.1-4.1-2.1-4-4.5c0.1-2.3,2.1-4.1,4.5-4
				c0.8,0,17.5,2.8,28.6,4.6c0-0.2,0.1-0.4,0.1-0.5c0,0-18.2-5.8-19.5-6.3c-0.5-0.2-1-0.6-1.3-1c-1.1-1.3-1.4-3.1-0.7-4.7
				c0.5-1,1.3-1.8,2.4-2.2c1.1-0.4,2.2-0.3,3.2,0.2c1.3,0.6,17.2,11.2,17.2,11.2c0.4-0.6,0.9-1.3,1.6-1.8c0.2-0.2,0.3-0.3,0.5-0.4
				c0,0-17.3-23.1-18.1-24.4c-1.2-2-0.6-4.6,1.5-5.8c1.7-1,4-0.7,5.3,0.8c0.2,0.2,0.3,0.4,0.5,0.7c0.8,1.3,13,27.4,13,27.4
				c1.1-0.5,2.3-0.7,3.5-0.7c0,0-1.6-25.2-1.5-26.8c0.1-1.1,0.6-2.2,1.4-2.9c0.8-0.8,1.9-1.1,3.1-1.1c1.1,0.1,2.2,0.6,2.9,1.4
				c0.8,0.8,1.1,1.9,1.1,3.1c-0.1,1.6-5,26.5-5,26.5c0.5,0.1,0.9,0.2,1.4,0.4c4.2-12.4,11.4-33.8,11.6-34.3c1-2.1,3.5-3.1,5.6-2.1
				c2.1,1,3.1,3.5,2.1,5.6c-0.2,0.5-11.3,20.1-17.8,31.5c0.6,0.3,1.2,0.7,1.7,1.2c0,0,10.8-13.5,11.8-14.5c1.7-1.6,4.4-1.4,6,0.3
				c1.6,1.7,1.4,4.4-0.3,6c-1.1,1-15.7,10.4-15.7,10.4c0.5,0.7,0.8,1.5,1,2.4c0,0,26.8-9.4,28.4-9.7c1.5-0.3,3,0.2,4.1,1.3
				c0.5,0.5,0.8,1.2,1,1.9c0.5,2.3-0.9,4.6-3.2,5.1c-1.6,0.4-29.9,3.3-29.9,3.3c0.1,1.4-0.1,2.9-0.6,4.3c0,0,22,11.2,23,11.8
				c0.3,0.2,0.6,0.5,0.9,0.7c1.3,1.4,1.4,3.5,0.4,5.1c-0.6,1-1.6,1.6-2.7,1.9c-1.1,0.2-2.2,0-3.2-0.6c-1-0.6-20.7-15.5-20.7-15.5
				c-0.1,0.1-0.2,0.2-0.3,0.3c-0.3,0.3-0.7,0.5-1,0.8c7.1,11.4,18.9,30.2,19.1,30.7C481-226.5,480.2-223.9,478.1-222.8z M460-262
				c2.9-2.6,3.1-7,0.5-9.9c-2.6-2.9-7-3.1-9.9-0.5c-2.9,2.6-3.1,7-0.5,9.9C452.7-259.7,457.1-259.4,460-262z"/>
		</g>
		<g>
			<path fill="#FFD400" d="M215.8-47.5c-2.3-4-0.9-9.1,3-11.4c0.9-0.5,24.7-9.6,48.7-20.5c-0.8-1.5-1.3-3.1-1.7-4.7
				c0,0-87.7,5.7-90.4,5.7c-2.2,0-4.3-0.9-5.9-2.4c-1.6-1.6-2.4-3.7-2.4-5.9c0-2.2,0.9-4.3,2.4-5.9c1.6-1.6,3.7-2.4,5.9-2.4
				c2.6,0,90.2,4.5,90.2,4.5c0.3-2,0.9-4.1,1.8-5.9c0,0-36.2-28.4-37.9-29.9c-1.7-1.5-2.6-3.5-2.8-5.7c-0.1-2.2,0.6-4.4,2.1-6
				c0.1-0.1,0.2-0.2,0.3-0.4c3.1-3.1,8.1-3.3,11.4-0.3c1.7,1.5,32.1,35.9,32.1,35.9c1.3-1.1,2.8-1.9,4.3-2.5
				c0,0-26.3-71.2-27.1-74.2c-0.8-2.9,0-6,2.2-8.1c1-1,2.3-1.8,3.7-2.1c2.1-0.6,4.4-0.3,6.3,0.8c1.9,1.1,3.3,2.9,3.9,5
				c0.8,3.1,14.7,77.5,14.7,77.5c0.8-0.2,1.6-0.2,2.4-0.3c-2.5-21.9-6.1-54.7-6.1-56.3c0-4.6,3.7-8.3,8.3-8.3s8.3,3.7,8.3,8.3
				c0,1.6-3.7,34.7-6.2,56.6c0.4,0.1,0.7,0.1,1.1,0.2c0,0,22.9-69.1,23.9-71.6c0.4-1,1-1.9,1.8-2.7c2.4-2.4,5.9-3.1,9.1-1.8
				c2.1,0.8,3.7,2.4,4.5,4.5c0.9,2.1,0.9,4.3,0,6.4c-1,2.5-33.7,67.5-33.7,67.5c1.3,0.8,2.6,1.7,3.7,2.9c0.3,0.3,0.6,0.6,0.9,1
				c0,0,43.5-36.3,45.9-37.9c3.8-2.6,9-1.6,11.6,2.3c2.2,3.3,1.8,7.7-1,10.5c-0.4,0.4-0.8,0.7-1.2,1c-2.4,1.6-52.4,28.4-52.4,28.4
				c1,2.2,1.7,4.5,1.8,6.9c0,0,78.5-5.7,81.7-5.7c2.2,0,4.3,0.9,5.9,2.4c1.6,1.6,2.4,3.7,2.4,5.9c0,2.2-0.9,4.3-2.4,5.9
				c-1.6,1.6-3.7,2.4-5.9,2.4c-3.2,0-81.8-7.1-81.8-7.1c-0.1,0.9-0.3,1.9-0.6,2.8c24.8,6.9,67.3,18.8,68.3,19.2
				c4.3,1.7,6.4,6.5,4.8,10.8c-1.7,4.3-6.5,6.4-10.8,4.8c-1-0.4-40.6-20.1-63.6-31.6c-0.6,1.2-1.3,2.4-2.2,3.5
				c0,0,36.4,28.5,38.4,30.5c3.2,3.2,3.2,8.5,0,11.8c-3.2,3.2-8.5,3.2-11.8,0c-2-2-30.7-38.5-30.7-38.5c-1.4,1-2.9,1.7-4.5,2.3
				c0,0,22.6,56.2,23.5,59.3c0.8,2.9,0,6-2.1,8.1c-1,1-2.3,1.7-3.7,2.1c-4.4,1.2-9-1.4-10.2-5.8c-0.9-3.1-11-62.8-11-62.8
				c-2.8,0.4-5.7,0.2-8.5-0.7c0,0-29.8,62.5-30.9,64.5c-0.4,0.7-0.8,1.3-1.4,1.8c-2.6,2.6-6.7,3.2-10,1.3c-1.9-1.1-3.3-2.9-3.9-5
				c-0.6-2.1-0.3-4.4,0.8-6.3c1.2-2,38.4-60.3,38.4-60.3c-0.2-0.2-0.5-0.4-0.7-0.6c-0.6-0.6-1.1-1.2-1.6-1.9
				c-21.5,15.1-41.4,31.2-42.3,31.8C223.2-42.1,218.1-43.5,215.8-47.5z M274.8-78.1c5.4,5.4,14.1,5.4,19.5,0
				c5.4-5.4,5.4-14.1,0-19.5c-5.4-5.4-14.1-5.4-19.5,0C269.4-92.2,269.4-83.5,274.8-78.1z"/>
			<path fill="#ED1C24" d="M311-127.7c-2.1,1.1-4.6,0.2-5.7-1.8c-0.2-0.5-8.3-21.2-13.2-33.7c-0.8,0.3-1.6,0.6-2.5,0.7
				c0,0,1.8,22.2,1.7,23.5c-0.1,1.1-0.6,2.2-1.4,2.9c-0.8,0.8-1.9,1.1-3.1,1.1c-1.1-0.1-2.2-0.6-2.9-1.4c-0.8-0.8-1.1-1.9-1.1-3.1
				c0.1-1.3,3.5-23.2,3.5-23.2c-1-0.2-2-0.6-3-1.1c0,0-15.4,17.6-16.2,18.5c-0.8,0.8-1.9,1.3-3,1.3c-1.1,0-2.2-0.4-3-1.2
				c-0.1-0.1-0.1-0.1-0.2-0.2c-1.5-1.7-1.4-4.2,0.1-5.8c0.8-0.8,19.1-15.4,19.1-15.4c-0.5-0.7-0.9-1.5-1.2-2.3
				c0,0-36.9,11.5-38.5,11.8c-1.5,0.3-3-0.2-4.1-1.3c-0.5-0.5-0.8-1.2-1-1.9c-0.2-1.1,0-2.2,0.6-3.2c0.6-1,1.6-1.6,2.7-1.9
				c1.6-0.3,39.8-5.4,39.8-5.4c-0.1-0.4-0.1-0.8-0.1-1.2c-11.2,0.7-28,1.7-28.8,1.6c-2.3-0.1-4.1-2.1-4-4.5c0.1-2.3,2.1-4.1,4.5-4
				c0.8,0,17.5,2.8,28.6,4.6c0-0.2,0.1-0.4,0.1-0.5c0,0-18.2-5.8-19.5-6.3c-0.5-0.2-1-0.6-1.3-1c-1.1-1.3-1.4-3.1-0.7-4.7
				c0.5-1,1.3-1.8,2.4-2.2c1.1-0.4,2.2-0.3,3.2,0.2c1.3,0.6,17.2,11.2,17.2,11.2c0.4-0.6,0.9-1.3,1.6-1.8c0.2-0.2,0.3-0.3,0.5-0.4
				c0,0-17.3-23.1-18.1-24.4c-1.2-2-0.6-4.6,1.5-5.8c1.7-1,4-0.7,5.3,0.8c0.2,0.2,0.3,0.4,0.5,0.7c0.8,1.3,13,27.4,13,27.4
				c1.1-0.5,2.3-0.7,3.5-0.7c0,0-1.6-25.2-1.5-26.8c0.1-1.1,0.6-2.2,1.4-2.9c0.8-0.8,1.9-1.1,3.1-1.1c1.1,0.1,2.2,0.6,2.9,1.4
				c0.8,0.8,1.1,1.9,1.1,3.1c-0.1,1.6-5,26.5-5,26.5c0.5,0.1,0.9,0.2,1.4,0.4c4.2-12.4,11.4-33.8,11.6-34.3c1-2.1,3.5-3.1,5.6-2.1
				c2.1,1,3.1,3.5,2.1,5.6c-0.2,0.5-11.3,20.1-17.8,31.5c0.6,0.3,1.2,0.7,1.7,1.2c0,0,10.8-13.5,11.8-14.5c1.7-1.6,4.4-1.4,6,0.3
				c1.6,1.7,1.4,4.4-0.3,6c-1.1,1-15.7,10.4-15.7,10.4c0.5,0.7,0.8,1.5,1,2.4c0,0,26.8-9.4,28.4-9.7c1.5-0.3,3,0.2,4.1,1.3
				c0.5,0.5,0.8,1.2,1,1.9c0.5,2.3-0.9,4.6-3.2,5.1c-1.6,0.4-29.9,3.3-29.9,3.3c0.1,1.4-0.1,2.9-0.6,4.3c0,0,22,11.2,23,11.8
				c0.3,0.2,0.6,0.5,0.9,0.7c1.3,1.4,1.4,3.5,0.4,5.1c-0.6,1-1.6,1.6-2.7,1.9c-1.1,0.2-2.2,0-3.2-0.6c-1-0.6-20.7-15.5-20.7-15.5
				c-0.1,0.1-0.2,0.2-0.3,0.3c-0.3,0.3-0.7,0.5-1,0.8c7.1,11.4,18.9,30.2,19.1,30.7C313.9-131.4,313.1-128.8,311-127.7z
				 M292.9-166.9c2.9-2.6,3.1-7,0.5-9.9c-2.6-2.9-7-3.1-9.9-0.5c-2.9,2.6-3.1,7-0.5,9.9C285.6-164.6,290-164.3,292.9-166.9z"/>
		</g>
		<g>
			<path fill="#FFD400" d="M48.7-142.6c-2.3-4-0.9-9.1,3-11.4c0.9-0.5,24.7-9.6,48.7-20.5c-0.8-1.5-1.3-3.1-1.7-4.7
				c0,0-87.7,5.7-90.4,5.7c-2.2,0-4.3-0.9-5.9-2.4c-1.6-1.6-2.4-3.7-2.4-5.9c0-2.2,0.9-4.3,2.4-5.9c1.6-1.6,3.7-2.4,5.9-2.4
				c2.6,0,90.2,4.5,90.2,4.5c0.3-2,0.9-4.1,1.8-5.9c0,0-36.2-28.4-37.9-29.9c-1.7-1.5-2.6-3.5-2.8-5.7c-0.1-2.2,0.6-4.4,2.1-6
				c0.1-0.1,0.2-0.2,0.3-0.4c3.1-3.1,8.1-3.3,11.4-0.3c1.7,1.5,32.1,35.9,32.1,35.9c1.3-1.1,2.8-1.9,4.3-2.5
				c0,0-26.3-71.2-27.1-74.2c-0.8-2.9,0-6,2.2-8.1c1-1,2.3-1.8,3.7-2.1c2.1-0.6,4.4-0.3,6.3,0.8c1.9,1.1,3.3,2.9,3.9,5
				c0.8,3.1,14.7,77.5,14.7,77.5c0.8-0.2,1.6-0.2,2.4-0.3c-2.5-21.9-6.1-54.7-6.1-56.3c0-4.6,3.7-8.3,8.3-8.3c4.6,0,8.3,3.7,8.3,8.3
				c0,1.6-3.7,34.7-6.2,56.6c0.4,0.1,0.7,0.1,1.1,0.2c0,0,22.9-69.1,23.9-71.6c0.4-1,1-1.9,1.8-2.7c2.4-2.4,5.9-3.1,9.1-1.8
				c2.1,0.8,3.7,2.4,4.5,4.5c0.9,2.1,0.9,4.3,0,6.4c-1,2.5-33.7,67.5-33.7,67.5c1.3,0.8,2.6,1.7,3.7,2.9c0.3,0.3,0.6,0.6,0.9,1
				c0,0,43.5-36.3,45.9-37.9c3.8-2.6,9-1.6,11.6,2.3c2.2,3.3,1.8,7.7-1,10.5c-0.4,0.4-0.8,0.7-1.2,1c-2.4,1.6-52.4,28.4-52.4,28.4
				c1,2.2,1.7,4.5,1.8,6.9c0,0,78.5-5.7,81.7-5.7c2.2,0,4.3,0.9,5.9,2.4c1.6,1.6,2.4,3.7,2.4,5.9c0,2.2-0.9,4.3-2.4,5.9
				c-1.6,1.6-3.7,2.4-5.9,2.4c-3.2,0-81.8-7.1-81.8-7.1c-0.1,0.9-0.3,1.9-0.6,2.8c24.8,6.9,67.3,18.8,68.3,19.2
				c4.3,1.7,6.4,6.5,4.8,10.8c-1.7,4.3-6.5,6.4-10.8,4.8c-1-0.4-40.6-20.1-63.6-31.6c-0.6,1.2-1.3,2.4-2.2,3.5
				c0,0,36.4,28.5,38.4,30.5c3.2,3.2,3.2,8.5,0,11.8c-3.2,3.2-8.5,3.2-11.8,0c-2-2-30.7-38.5-30.7-38.5c-1.4,1-2.9,1.7-4.5,2.3
				c0,0,22.6,56.2,23.5,59.3c0.8,2.9,0,6-2.1,8.1c-1,1-2.3,1.7-3.7,2.1c-4.4,1.2-9-1.4-10.2-5.8c-0.9-3.1-11-62.8-11-62.8
				c-2.8,0.4-5.7,0.2-8.5-0.7c0,0-29.8,62.5-30.9,64.5c-0.4,0.7-0.8,1.3-1.4,1.8c-2.6,2.6-6.7,3.2-10,1.3c-1.9-1.1-3.3-2.9-3.9-5
				c-0.6-2.1-0.3-4.4,0.8-6.3c1.2-2,38.4-60.3,38.4-60.3c-0.2-0.2-0.5-0.4-0.7-0.6c-0.6-0.6-1.1-1.2-1.6-1.9
				C80.8-156.2,61-140.1,60-139.5C56.1-137.2,51-138.6,48.7-142.6z M107.7-173.2c5.4,5.4,14.1,5.4,19.5,0c5.4-5.4,5.4-14.1,0-19.5
				c-5.4-5.4-14.1-5.4-19.5,0C102.3-187.3,102.3-178.6,107.7-173.2z"/>
			<path fill="#A6CE39" d="M228.1-87.8c-2.9,2-6.9,1.3-8.9-1.6c-0.5-0.7-16.5-29.9-26.2-47.5c-1.1,0.7-2.3,1.2-3.5,1.5
				c0,0,6.9,32.7,7.1,34.7c0.1,1.7-0.4,3.3-1.5,4.6c-1.1,1.3-2.6,2.1-4.3,2.2c-1.7,0.1-3.3-0.4-4.6-1.5c-1.3-1.1-2.1-2.6-2.2-4.3
				c-0.2-2,0.7-35.2,0.7-35.2c-1.6-0.1-3.1-0.4-4.6-1.1c0,0-19.5,29.2-20.6,30.6c-1,1.4-2.5,2.2-4.2,2.5c-1.7,0.2-3.4-0.2-4.7-1.2
				c-0.1-0.1-0.2-0.2-0.3-0.2c-2.6-2.2-3-6-0.9-8.7c1.1-1.4,25.5-26.6,25.5-26.6c-0.9-1-1.6-2-2.2-3.1c0,0-52.7,24.2-55,25.1
				c-2.1,0.8-4.6,0.3-6.3-1.2c-0.8-0.7-1.5-1.7-1.9-2.7c-0.6-1.6-0.5-3.3,0.2-4.9c0.7-1.5,2-2.7,3.6-3.3
				c2.3-0.8,58.2-15.8,58.2-15.8c-0.2-0.6-0.3-1.2-0.4-1.8c-16.5,3.2-41.3,7.9-42.6,8c-3.5,0.3-6.6-2.4-6.8-5.9
				c-0.3-3.5,2.4-6.6,5.9-6.8c1.3-0.1,26.6,0.8,43.5,1.3c0-0.3,0-0.6,0.1-0.8c0,0-28.3-5-30.2-5.7c-0.8-0.3-1.5-0.7-2.2-1.2
				c-2-1.7-2.7-4.3-1.9-6.8c0.5-1.6,1.6-2.9,3.2-3.7c1.5-0.8,3.2-0.9,4.9-0.4c2,0.6,27.7,13.3,27.7,13.3c0.5-1,1.2-2.1,2-3
				c0.2-0.3,0.5-0.5,0.7-0.7c0,0-30.2-31-31.6-32.8c-2.2-2.7-1.7-6.8,1-8.9c2.4-1.9,5.8-1.8,8.1,0.1c0.3,0.3,0.6,0.6,0.9,0.9
				c1.4,1.7,24.7,38.3,24.7,38.3c1.6-0.9,3.3-1.5,5.1-1.8c0,0-7.3-37.2-7.4-39.6c-0.1-1.7,0.4-3.3,1.5-4.6c1.1-1.3,2.6-2.1,4.3-2.2
				c1.7-0.1,3.3,0.4,4.6,1.5c1.3,1.1,2.1,2.6,2.2,4.3c0.2,2.4-2.3,40.4-2.3,40.4c0.7,0,1.4,0.1,2.2,0.3
				c3.8-19.3,10.4-52.4,10.6-53.2c1-3.4,4.6-5.3,7.9-4.3c3.4,1,5.3,4.6,4.3,7.9c-0.2,0.8-12.9,32.1-20.3,50.3c1,0.4,1.9,0.9,2.8,1.5
				c0,0,13.4-22.3,14.8-23.9c2.3-2.7,6.3-3,9-0.7c2.7,2.3,3,6.3,0.7,9c-1.4,1.6-21.4,18.5-21.4,18.5c0.8,1,1.5,2.1,2,3.3
				c0,0,38.1-19.1,40.4-20c2.1-0.8,4.6-0.3,6.3,1.2c0.8,0.7,1.5,1.6,1.8,2.7c1.2,3.3-0.5,7-3.8,8.2c-2.3,0.8-43.8,10.7-43.8,10.7
				c0.5,2.1,0.5,4.3,0,6.5c0,0,35,12.3,36.6,13.1c0.5,0.2,1,0.6,1.4,0.9c2.2,1.9,2.8,4.9,1.6,7.5c-0.7,1.5-2,2.7-3.6,3.3
				c-1.6,0.6-3.3,0.5-4.9-0.2c-1.6-0.8-33.8-19-33.8-19c-0.1,0.2-0.3,0.4-0.4,0.6c-0.4,0.5-0.9,0.9-1.3,1.3
				c12.8,15.5,34,41.3,34.4,42C231.7-93.8,231-89.8,228.1-87.8z M193.5-142.6c3.8-4.4,3.3-11.1-1.2-14.8c-4.4-3.8-11.1-3.3-14.8,1.1
				c-3.8,4.4-3.3,11.1,1.2,14.8C183.1-137.7,189.8-138.2,193.5-142.6z"/>
			<path fill="#ED1C24" d="M143.9-222.8c-2.1,1.1-4.6,0.2-5.7-1.8c-0.2-0.5-8.3-21.2-13.2-33.7c-0.8,0.3-1.6,0.6-2.5,0.7
				c0,0,1.8,22.2,1.7,23.5c-0.1,1.1-0.6,2.2-1.4,2.9c-0.8,0.8-1.9,1.1-3.1,1.1c-1.1-0.1-2.2-0.6-2.9-1.4c-0.8-0.8-1.1-1.9-1.1-3.1
				c0.1-1.3,3.5-23.2,3.5-23.2c-1-0.2-2-0.6-3-1.1c0,0-15.4,17.6-16.2,18.5c-0.8,0.8-1.9,1.3-3,1.3c-1.1,0-2.2-0.4-3-1.2
				c-0.1-0.1-0.1-0.1-0.2-0.2c-1.5-1.7-1.4-4.2,0.1-5.8c0.8-0.8,19.1-15.4,19.1-15.4c-0.5-0.7-0.9-1.5-1.2-2.3
				c0,0-36.9,11.5-38.5,11.8c-1.5,0.3-3-0.2-4.1-1.3c-0.5-0.5-0.8-1.2-1-1.9c-0.2-1.1,0-2.2,0.6-3.2c0.6-1,1.6-1.6,2.7-1.9
				c1.6-0.3,39.8-5.4,39.8-5.4c-0.1-0.4-0.1-0.8-0.1-1.2c-11.2,0.7-28,1.7-28.8,1.6c-2.3-0.1-4.1-2.1-4-4.5c0.1-2.3,2.1-4.1,4.5-4
				c0.8,0,17.5,2.8,28.6,4.6c0-0.2,0.1-0.4,0.1-0.5c0,0-18.2-5.8-19.5-6.3c-0.5-0.2-1-0.6-1.3-1c-1.1-1.3-1.4-3.1-0.7-4.7
				c0.5-1,1.3-1.8,2.4-2.2c1.1-0.4,2.2-0.3,3.2,0.2c1.3,0.6,17.2,11.2,17.2,11.2c0.4-0.6,0.9-1.3,1.6-1.8c0.2-0.2,0.3-0.3,0.5-0.4
				c0,0-17.3-23.1-18.1-24.4c-1.2-2-0.6-4.6,1.5-5.8c1.7-1,4-0.7,5.3,0.8c0.2,0.2,0.3,0.4,0.5,0.7c0.8,1.3,13,27.4,13,27.4
				c1.1-0.5,2.3-0.7,3.5-0.7c0,0-1.6-25.2-1.5-26.8c0.1-1.1,0.6-2.2,1.4-2.9c0.8-0.8,1.9-1.1,3.1-1.1c1.1,0.1,2.2,0.6,2.9,1.4
				c0.8,0.8,1.1,1.9,1.1,3.1c-0.1,1.6-5,26.5-5,26.5c0.5,0.1,0.9,0.2,1.4,0.4c4.2-12.4,11.4-33.8,11.6-34.3c1-2.1,3.5-3.1,5.6-2.1
				c2.1,1,3.1,3.5,2.1,5.6c-0.2,0.5-11.3,20.1-17.7,31.5c0.6,0.3,1.2,0.7,1.7,1.2c0,0,10.8-13.5,11.8-14.5c1.7-1.6,4.4-1.4,6,0.3
				c1.6,1.7,1.4,4.4-0.3,6c-1.1,1-15.7,10.4-15.7,10.4c0.5,0.7,0.8,1.5,1,2.4c0,0,26.8-9.4,28.4-9.7c1.5-0.3,3,0.2,4.1,1.3
				c0.5,0.5,0.8,1.2,1,1.9c0.5,2.3-0.9,4.6-3.2,5.1c-1.6,0.4-29.9,3.3-29.9,3.3c0.1,1.4-0.1,2.9-0.6,4.3c0,0,22,11.2,23,11.8
				c0.3,0.2,0.6,0.5,0.9,0.7c1.3,1.4,1.4,3.5,0.4,5.1c-0.6,1-1.6,1.6-2.7,1.9c-1.1,0.2-2.2,0-3.2-0.6c-1-0.6-20.7-15.5-20.7-15.5
				c-0.1,0.1-0.2,0.2-0.3,0.3c-0.3,0.3-0.7,0.5-1,0.8c7.1,11.4,18.9,30.2,19.1,30.7C146.8-226.5,146-223.9,143.9-222.8z M125.8-262
				c2.9-2.6,3.1-7,0.5-9.9c-2.6-2.9-7-3.1-9.9-0.5c-2.9,2.6-3.1,7-0.5,9.9C118.5-259.7,122.9-259.4,125.8-262z"/>
		</g>
		<g>
			<path fill="#00BAC6" d="M438.3-323.7c-1,2.9-4.3,4.4-7.2,3.4c-0.7-0.2-16.6-9-32.6-16.6c-0.5,1-1,2-1.7,2.9
				c0,0,46.4,49,47.6,50.4c1,1.1,1.4,2.6,1.3,4.1c-0.1,1.5-0.8,2.8-2,3.8c-1.1,1-2.6,1.4-4.1,1.3c-1.5-0.1-2.8-0.8-3.8-2
				c-1.1-1.4-42.3-54.7-42.3-54.7c-1.2,0.7-2.5,1.3-3.9,1.6c0,0,1.1,30.9,1,32.5c0,1.5-0.7,2.9-1.7,3.9c-1.1,1-2.5,1.6-4,1.5
				c-0.1,0-0.2,0-0.3,0c-3-0.2-5.2-2.8-5.1-5.7c0-1.5,4.5-32.1,4.5-32.1c-1.1-0.2-2.2-0.6-3.2-1.1c0,0-25.2,44.4-26.4,46.1
				c-1.1,1.7-3.1,2.6-5.1,2.4c-1-0.1-1.9-0.4-2.7-1c-1.2-0.9-2.1-2.1-2.3-3.6c-0.3-1.5,0.1-3,0.9-4.2c1.2-1.8,33.5-41.2,33.5-41.2
				c-0.4-0.3-0.8-0.7-1.2-1.1c-10.2,10.8-25.5,26.9-26.3,27.6c-2.4,2-5.9,1.7-7.9-0.7c-2-2.4-1.7-5.9,0.7-7.9
				c0.8-0.7,19.4-13.1,31.8-21.4c-0.1-0.2-0.3-0.4-0.4-0.6c0,0-45.5,18.2-47.2,18.8c-0.7,0.2-1.4,0.3-2.2,0.2
				c-2.3-0.2-4.2-1.7-4.9-3.9c-0.5-1.4-0.3-2.9,0.4-4.3c0.7-1.3,1.8-2.3,3.3-2.8c1.7-0.6,49.3-12,49.3-12c-0.2-1-0.2-2.1-0.1-3.2
				c0-0.3,0.1-0.6,0.1-0.9c0,0-37.5-6.6-39.4-7.2c-3-0.8-4.7-3.9-3.9-6.9c0.7-2.6,3.2-4.3,5.9-4.1c0.4,0,0.7,0.1,1.1,0.2
				c1.9,0.5,37.3,14.6,37.3,14.6c0.7-1.5,1.6-2.8,2.8-3.9c0,0-44.1-46.3-45.5-47.9c-1-1.1-1.4-2.6-1.3-4.1c0.1-1.5,0.8-2.8,2-3.8
				c1.1-1,2.6-1.4,4.1-1.3c1.5,0.1,2.8,0.8,3.8,2c1.4,1.6,38.9,53.6,38.9,53.6c0.5-0.3,1.1-0.6,1.7-0.9
				c-7.2-15.7-19.5-42.8-19.8-43.5c-1-2.9,0.6-6.1,3.5-7.1c2.9-1,6.1,0.6,7.1,3.5c0.2,0.7,7.3,29.6,11.4,46.4
				c0.9-0.2,1.8-0.4,2.7-0.4c0,0-1.1-31.1-1-33c0.3-3.1,3-5.4,6.1-5.1c3.1,0.3,5.4,3,5.1,6.1c-0.2,1.9-6.5,32.5-6.5,32.5
				c1.1,0.3,2.2,0.8,3.1,1.3c0,0,26.4-46.3,27.6-48.1c1.1-1.7,3.1-2.6,5.1-2.4c1,0.1,1.9,0.4,2.7,1c2.5,1.7,3.2,5.2,1.5,7.8
				c-1.2,1.8-34.8,43.3-34.8,43.3c1.4,1.3,2.6,2.9,3.3,4.7c0,0,45-11.8,46.6-12.1c0.5-0.1,1-0.1,1.5-0.1c2.5,0.2,4.6,2.1,5,4.5
				c0.3,1.5,0,3-0.9,4.2c-0.8,1.2-2.1,2.1-3.6,2.3c-1.6,0.3-47.7,6.4-47.7,6.4c0,0.2,0,0.4,0,0.6c0,0.6-0.1,1.1-0.3,1.6
				c17.1,4.5,34.9,8.2,35.6,8.4C437.8-329.9,439.4-326.7,438.3-323.7z M396-341.3c0.4-5.1-3.4-9.6-8.4-10c-5.1-0.4-9.6,3.4-10,8.4
				c-0.4,5.1,3.4,9.6,8.4,10C391.1-332.4,395.6-336.2,396-341.3z"/>
			<path fill="#FFD400" d="M382.9-332.7c-2.3-4-0.9-9.1,3-11.4c0.9-0.5,24.7-9.6,48.7-20.5c-0.8-1.5-1.3-3.1-1.7-4.7
				c0,0-87.7,5.7-90.4,5.7c-2.2,0-4.3-0.9-5.9-2.4c-1.6-1.6-2.4-3.7-2.4-5.9c0-2.2,0.9-4.3,2.4-5.9c1.6-1.6,3.7-2.4,5.9-2.4
				c2.6,0,90.2,4.5,90.2,4.5c0.3-2,0.9-4.1,1.8-5.9c0,0-36.2-28.4-37.9-29.9c-1.7-1.5-2.6-3.5-2.8-5.7c-0.1-2.2,0.6-4.4,2.1-6
				c0.1-0.1,0.2-0.2,0.3-0.4c3.1-3.1,8.1-3.3,11.4-0.3c1.7,1.5,32.1,35.9,32.1,35.9c1.3-1.1,2.8-1.9,4.3-2.5
				c0,0-26.3-71.2-27.1-74.2c-0.8-2.9,0-6,2.2-8.1c1-1,2.3-1.8,3.7-2.1c2.1-0.6,4.4-0.3,6.3,0.8c1.9,1.1,3.3,2.9,3.9,5
				c0.8,3.1,14.7,77.5,14.7,77.5c0.8-0.2,1.6-0.2,2.4-0.3c-2.5-21.9-6.1-54.7-6.1-56.3c0-4.6,3.7-8.3,8.3-8.3c4.6,0,8.3,3.7,8.3,8.3
				c0,1.6-3.7,34.7-6.2,56.6c0.4,0.1,0.7,0.1,1.1,0.2c0,0,22.9-69.1,23.9-71.6c0.4-1,1-1.9,1.8-2.7c2.4-2.4,5.9-3.1,9.1-1.8
				c2.1,0.8,3.7,2.4,4.5,4.5c0.9,2.1,0.9,4.3,0,6.4c-1,2.5-33.7,67.5-33.7,67.5c1.3,0.8,2.6,1.7,3.7,2.9c0.3,0.3,0.6,0.6,0.9,1
				c0,0,43.5-36.3,45.9-37.9c3.8-2.6,9-1.6,11.6,2.3c2.2,3.3,1.8,7.7-1,10.5c-0.4,0.4-0.8,0.7-1.2,1c-2.4,1.6-52.4,28.4-52.4,28.4
				c1,2.2,1.7,4.5,1.8,6.9c0,0,78.5-5.7,81.7-5.7c2.2,0,4.3,0.9,5.9,2.4c1.6,1.6,2.4,3.7,2.4,5.9c0,2.2-0.9,4.3-2.4,5.9
				c-1.6,1.6-3.7,2.4-5.9,2.4c-3.2,0-81.8-7.1-81.8-7.1c-0.1,0.9-0.3,1.9-0.6,2.8c24.8,6.9,67.3,18.8,68.3,19.2
				c4.3,1.7,6.4,6.5,4.8,10.8c-1.7,4.3-6.5,6.4-10.8,4.8c-1-0.4-40.6-20.1-63.6-31.6c-0.6,1.2-1.3,2.4-2.2,3.5
				c0,0,36.4,28.5,38.4,30.5c3.2,3.2,3.2,8.5,0,11.8c-3.2,3.2-8.5,3.2-11.8,0c-2-2-30.7-38.5-30.7-38.5c-1.4,1-2.9,1.7-4.5,2.3
				c0,0,22.6,56.2,23.5,59.3c0.8,2.9,0,6-2.1,8.1c-1,1-2.3,1.7-3.7,2.1c-4.4,1.2-9-1.4-10.2-5.8c-0.9-3.1-11-62.8-11-62.8
				c-2.8,0.4-5.7,0.2-8.5-0.7c0,0-29.8,62.5-30.9,64.5c-0.4,0.7-0.8,1.3-1.4,1.8c-2.6,2.6-6.7,3.2-10,1.3c-1.9-1.1-3.3-2.9-3.9-5
				c-0.6-2.1-0.3-4.4,0.8-6.3c1.2-2,38.4-60.3,38.4-60.3c-0.2-0.2-0.5-0.4-0.7-0.6c-0.6-0.6-1.1-1.2-1.6-1.9
				c-21.5,15.1-41.4,31.2-42.3,31.8C390.3-327.4,385.2-328.8,382.9-332.7z M441.9-363.4c5.4,5.4,14.1,5.4,19.5,0
				c5.4-5.4,5.4-14.1,0-19.5c-5.4-5.4-14.1-5.4-19.5,0C436.5-377.5,436.5-368.7,441.9-363.4z"/>
			<path fill="#A6CE39" d="M562.3-278c-2.9,2-6.9,1.3-8.9-1.6c-0.5-0.7-16.5-29.9-26.2-47.5c-1.1,0.7-2.3,1.2-3.5,1.5
				c0,0,6.9,32.7,7.1,34.7c0.1,1.7-0.4,3.3-1.5,4.6c-1.1,1.3-2.6,2.1-4.3,2.2c-1.7,0.1-3.3-0.4-4.6-1.5c-1.3-1.1-2.1-2.6-2.2-4.3
				c-0.2-2,0.7-35.2,0.7-35.2c-1.6-0.1-3.1-0.4-4.6-1.1c0,0-19.5,29.2-20.6,30.6c-1,1.4-2.5,2.2-4.2,2.5c-1.7,0.2-3.4-0.2-4.7-1.2
				c-0.1-0.1-0.2-0.2-0.3-0.2c-2.6-2.2-3-6-0.9-8.7c1.1-1.4,25.5-26.6,25.5-26.6c-0.9-1-1.6-2-2.2-3.1c0,0-52.7,24.2-55,25.1
				c-2.1,0.8-4.6,0.3-6.3-1.2c-0.8-0.7-1.5-1.7-1.9-2.7c-0.6-1.6-0.5-3.3,0.2-4.9c0.7-1.5,2-2.7,3.6-3.3
				c2.3-0.8,58.2-15.8,58.2-15.8c-0.2-0.6-0.3-1.2-0.4-1.8c-16.5,3.2-41.3,7.9-42.6,8c-3.5,0.3-6.6-2.4-6.8-5.9
				c-0.3-3.5,2.4-6.6,5.9-6.8c1.3-0.1,26.6,0.8,43.5,1.3c0-0.3,0-0.6,0.1-0.8c0,0-28.3-5-30.2-5.7c-0.8-0.3-1.5-0.7-2.2-1.2
				c-2-1.7-2.7-4.3-1.9-6.8c0.5-1.6,1.6-2.9,3.2-3.7c1.5-0.8,3.2-0.9,4.9-0.4c2,0.6,27.7,13.3,27.7,13.3c0.5-1,1.2-2.1,2-3
				c0.2-0.3,0.5-0.5,0.7-0.7c0,0-30.2-31-31.6-32.8c-2.2-2.7-1.7-6.8,1-8.9c2.4-1.9,5.8-1.8,8.1,0.1c0.3,0.3,0.6,0.6,0.9,0.9
				c1.4,1.7,24.7,38.3,24.7,38.3c1.6-0.9,3.3-1.5,5.1-1.8c0,0-7.3-37.2-7.4-39.6c-0.1-1.7,0.4-3.3,1.5-4.6c1.1-1.3,2.6-2.1,4.3-2.2
				c1.7-0.1,3.3,0.4,4.6,1.5c1.3,1.1,2.1,2.6,2.2,4.3c0.2,2.4-2.3,40.4-2.3,40.4c0.7,0,1.4,0.1,2.2,0.3
				c3.8-19.3,10.4-52.4,10.6-53.2c1-3.4,4.6-5.3,7.9-4.3c3.4,1,5.3,4.6,4.3,7.9c-0.2,0.8-12.9,32.1-20.3,50.3c1,0.4,1.9,0.9,2.8,1.5
				c0,0,13.4-22.3,14.8-23.9c2.3-2.7,6.3-3,9-0.7c2.7,2.3,3,6.3,0.7,9c-1.4,1.6-21.4,18.5-21.4,18.5c0.8,1,1.5,2.1,2,3.3
				c0,0,38.1-19.1,40.4-20c2.1-0.8,4.6-0.3,6.3,1.2c0.8,0.7,1.5,1.6,1.8,2.7c1.2,3.3-0.5,7-3.8,8.2c-2.3,0.8-43.8,10.7-43.8,10.7
				c0.5,2.1,0.5,4.3,0,6.5c0,0,35,12.3,36.6,13.1c0.5,0.2,1,0.6,1.4,0.9c2.2,1.9,2.8,4.9,1.6,7.5c-0.7,1.5-2,2.7-3.6,3.3
				c-1.6,0.6-3.3,0.5-4.9-0.2c-1.6-0.8-33.8-19-33.8-19c-0.1,0.2-0.3,0.4-0.4,0.6c-0.4,0.5-0.9,0.9-1.3,1.3
				c12.8,15.5,34,41.3,34.4,42C565.9-283.9,565.2-280,562.3-278z M527.7-332.8c3.8-4.4,3.3-11.1-1.2-14.8
				c-4.4-3.8-11.1-3.3-14.8,1.1c-3.8,4.4-3.3,11.1,1.2,14.8C517.3-327.9,524-328.4,527.7-332.8z"/>
		</g>
		<g>
			<path fill="#00BAC6" d="M271.2-228.7c-1,2.9-4.3,4.4-7.2,3.4c-0.7-0.2-16.6-9-32.6-16.6c-0.5,1-1,2-1.7,2.9
				c0,0,46.4,49,47.6,50.4c1,1.1,1.4,2.6,1.3,4.1c-0.1,1.5-0.8,2.8-2,3.8c-1.1,1-2.6,1.4-4.1,1.3c-1.5-0.1-2.8-0.8-3.8-2
				c-1.1-1.4-42.3-54.7-42.3-54.7c-1.2,0.7-2.5,1.3-3.9,1.6c0,0,1.1,30.9,1,32.5c0,1.5-0.7,2.9-1.7,3.9c-1.1,1-2.5,1.6-4,1.5
				c-0.1,0-0.2,0-0.3,0c-3-0.2-5.2-2.8-5.1-5.7c0-1.5,4.5-32.1,4.5-32.1c-1.1-0.2-2.2-0.6-3.2-1.1c0,0-25.2,44.4-26.4,46.1
				c-1.1,1.7-3.1,2.6-5.1,2.4c-1-0.1-1.9-0.4-2.7-1c-1.2-0.9-2.1-2.1-2.3-3.6c-0.3-1.5,0.1-3,0.9-4.2c1.2-1.8,33.5-41.2,33.5-41.2
				c-0.4-0.3-0.8-0.7-1.2-1.1c-10.2,10.8-25.5,26.9-26.3,27.6c-2.4,2-5.9,1.7-7.9-0.7c-2-2.4-1.7-5.9,0.7-7.9
				c0.8-0.7,19.4-13.1,31.8-21.4c-0.1-0.2-0.3-0.4-0.4-0.6c0,0-45.5,18.2-47.2,18.8c-0.7,0.2-1.4,0.3-2.2,0.2
				c-2.3-0.2-4.2-1.7-4.9-3.9c-0.5-1.4-0.3-2.9,0.4-4.3c0.7-1.3,1.8-2.3,3.3-2.8c1.7-0.6,49.3-12,49.3-12c-0.2-1-0.2-2.1-0.1-3.2
				c0-0.3,0.1-0.6,0.1-0.9c0,0-37.5-6.6-39.4-7.2c-3-0.8-4.7-3.9-3.9-6.9c0.7-2.6,3.2-4.3,5.9-4.1c0.4,0,0.7,0.1,1.1,0.2
				c1.9,0.5,37.3,14.6,37.3,14.6c0.7-1.5,1.6-2.8,2.8-3.9c0,0-44.1-46.3-45.5-47.9c-1-1.1-1.4-2.6-1.3-4.1c0.1-1.5,0.8-2.8,2-3.8
				c1.1-1,2.6-1.4,4.1-1.3c1.5,0.1,2.8,0.8,3.8,2c1.4,1.6,38.9,53.6,38.9,53.6c0.5-0.3,1.1-0.6,1.7-0.9
				c-7.2-15.7-19.5-42.8-19.8-43.5c-1-2.9,0.6-6.1,3.5-7.1c2.9-1,6.1,0.6,7.1,3.5c0.2,0.7,7.3,29.6,11.4,46.4
				c0.9-0.2,1.8-0.4,2.7-0.4c0,0-1.1-31.1-1-33c0.3-3.1,3-5.4,6.1-5.1c3.1,0.3,5.4,3,5.1,6.1c-0.2,1.9-6.5,32.5-6.5,32.5
				c1.1,0.3,2.2,0.8,3.1,1.3c0,0,26.4-46.3,27.6-48.1c1.1-1.7,3.1-2.6,5.1-2.4c1,0.1,1.9,0.4,2.7,1c2.5,1.7,3.2,5.2,1.5,7.8
				c-1.2,1.8-34.8,43.3-34.8,43.3c1.4,1.3,2.6,2.9,3.3,4.7c0,0,45-11.8,46.6-12.1c0.5-0.1,1-0.1,1.5-0.1c2.5,0.2,4.6,2.1,5,4.5
				c0.3,1.5,0,3-0.9,4.2c-0.8,1.2-2.1,2.1-3.6,2.3c-1.6,0.3-47.7,6.4-47.7,6.4c0,0.2,0,0.4,0,0.6c0,0.6-0.1,1.1-0.3,1.6
				c17.1,4.5,34.9,8.2,35.6,8.4C270.7-234.8,272.2-231.6,271.2-228.7z M228.9-246.2c0.4-5.1-3.4-9.6-8.4-10c-5.1-0.4-9.6,3.4-10,8.4
				c-0.4,5.1,3.4,9.6,8.4,10C224-237.3,228.5-241.1,228.9-246.2z"/>
			<path fill="#FFD400" d="M215.8-237.6c-2.3-4-0.9-9.1,3-11.4c0.9-0.5,24.7-9.6,48.7-20.5c-0.8-1.5-1.3-3.1-1.7-4.7
				c0,0-87.7,5.7-90.4,5.7c-2.2,0-4.3-0.9-5.9-2.4c-1.6-1.6-2.4-3.7-2.4-5.9c0-2.2,0.9-4.3,2.4-5.9c1.6-1.6,3.7-2.4,5.9-2.4
				c2.6,0,90.2,4.5,90.2,4.5c0.3-2,0.9-4.1,1.8-5.9c0,0-36.2-28.4-37.9-29.9c-1.7-1.5-2.6-3.5-2.8-5.7c-0.1-2.2,0.6-4.4,2.1-6
				c0.1-0.1,0.2-0.2,0.3-0.4c3.1-3.1,8.1-3.3,11.4-0.3c1.7,1.5,32.1,35.9,32.1,35.9c1.3-1.1,2.8-1.9,4.3-2.5
				c0,0-26.3-71.2-27.1-74.2c-0.8-2.9,0-6,2.2-8.1c1-1,2.3-1.8,3.7-2.1c2.1-0.6,4.4-0.3,6.3,0.8c1.9,1.1,3.3,2.9,3.9,5
				c0.8,3.1,14.7,77.5,14.7,77.5c0.8-0.2,1.6-0.2,2.4-0.3c-2.5-21.9-6.1-54.7-6.1-56.3c0-4.6,3.7-8.3,8.3-8.3s8.3,3.7,8.3,8.3
				c0,1.6-3.7,34.7-6.2,56.6c0.4,0.1,0.7,0.1,1.1,0.2c0,0,22.9-69.1,23.9-71.6c0.4-1,1-1.9,1.8-2.7c2.4-2.4,5.9-3.1,9.1-1.8
				c2.1,0.8,3.7,2.4,4.5,4.5c0.9,2.1,0.9,4.3,0,6.4c-1,2.5-33.7,67.5-33.7,67.5c1.3,0.8,2.6,1.7,3.7,2.9c0.3,0.3,0.6,0.6,0.9,1
				c0,0,43.5-36.3,45.9-37.9c3.8-2.6,9-1.6,11.6,2.3c2.2,3.3,1.8,7.7-1,10.5c-0.4,0.4-0.8,0.7-1.2,1c-2.4,1.6-52.4,28.4-52.4,28.4
				c1,2.2,1.7,4.5,1.8,6.9c0,0,78.5-5.7,81.7-5.7c2.2,0,4.3,0.9,5.9,2.4c1.6,1.6,2.4,3.7,2.4,5.9c0,2.2-0.9,4.3-2.4,5.9
				c-1.6,1.6-3.7,2.4-5.9,2.4c-3.2,0-81.8-7.1-81.8-7.1c-0.1,0.9-0.3,1.9-0.6,2.8c24.8,6.9,67.3,18.8,68.3,19.2
				c4.3,1.7,6.4,6.5,4.8,10.8c-1.7,4.3-6.5,6.4-10.8,4.8c-1-0.4-40.6-20.1-63.6-31.6c-0.6,1.2-1.3,2.4-2.2,3.5
				c0,0,36.4,28.5,38.4,30.5c3.2,3.2,3.2,8.5,0,11.8c-3.2,3.2-8.5,3.2-11.8,0c-2-2-30.7-38.5-30.7-38.5c-1.4,1-2.9,1.7-4.5,2.3
				c0,0,22.6,56.2,23.5,59.3c0.8,2.9,0,6-2.1,8.1c-1,1-2.3,1.7-3.7,2.1c-4.4,1.2-9-1.4-10.2-5.8c-0.9-3.1-11-62.8-11-62.8
				c-2.8,0.4-5.7,0.2-8.5-0.7c0,0-29.8,62.5-30.9,64.5c-0.4,0.7-0.8,1.3-1.4,1.8c-2.6,2.6-6.7,3.2-10,1.3c-1.9-1.1-3.3-2.9-3.9-5
				c-0.6-2.1-0.3-4.4,0.8-6.3c1.2-2,38.4-60.3,38.4-60.3c-0.2-0.2-0.5-0.4-0.7-0.6c-0.6-0.6-1.1-1.2-1.6-1.9
				c-21.5,15.1-41.4,31.2-42.3,31.8C223.2-232.3,218.1-233.7,215.8-237.6z M274.8-268.3c5.4,5.4,14.1,5.4,19.5,0
				c5.4-5.4,5.4-14.1,0-19.5c-5.4-5.4-14.1-5.4-19.5,0C269.4-282.4,269.4-273.6,274.8-268.3z"/>
			<path fill="#A6CE39" d="M395.2-182.9c-2.9,2-6.9,1.3-8.9-1.6c-0.5-0.7-16.5-29.9-26.2-47.5c-1.1,0.7-2.3,1.2-3.5,1.5
				c0,0,6.9,32.7,7.1,34.7c0.1,1.7-0.4,3.3-1.5,4.6c-1.1,1.3-2.6,2.1-4.3,2.2c-1.7,0.1-3.3-0.4-4.6-1.5c-1.3-1.1-2.1-2.6-2.2-4.3
				c-0.2-2,0.7-35.2,0.7-35.2c-1.6-0.1-3.1-0.4-4.6-1.1c0,0-19.5,29.2-20.6,30.6c-1,1.4-2.5,2.2-4.2,2.5c-1.7,0.2-3.4-0.2-4.7-1.2
				c-0.1-0.1-0.2-0.2-0.3-0.2c-2.6-2.2-3-6-0.9-8.7c1.1-1.4,25.5-26.6,25.5-26.6c-0.9-1-1.6-2-2.2-3.1c0,0-52.7,24.2-55,25.1
				c-2.1,0.8-4.6,0.3-6.3-1.2c-0.8-0.7-1.5-1.7-1.9-2.7c-0.6-1.6-0.5-3.3,0.2-4.9c0.7-1.5,2-2.7,3.6-3.3
				c2.3-0.8,58.2-15.8,58.2-15.8c-0.2-0.6-0.3-1.2-0.4-1.8c-16.5,3.2-41.3,7.9-42.6,8c-3.5,0.3-6.6-2.4-6.8-5.9
				c-0.3-3.5,2.4-6.6,5.9-6.8c1.3-0.1,26.6,0.8,43.5,1.3c0-0.3,0-0.6,0.1-0.8c0,0-28.3-5-30.2-5.7c-0.8-0.3-1.5-0.7-2.2-1.2
				c-2-1.7-2.7-4.3-1.9-6.8c0.5-1.6,1.6-2.9,3.2-3.7c1.5-0.8,3.2-0.9,4.9-0.4c2,0.6,27.7,13.3,27.7,13.3c0.5-1,1.2-2.1,2-3
				c0.2-0.3,0.5-0.5,0.7-0.7c0,0-30.2-31-31.6-32.8c-2.2-2.7-1.7-6.8,1-8.9c2.4-1.9,5.8-1.8,8.1,0.1c0.3,0.3,0.6,0.6,0.9,0.9
				c1.4,1.7,24.7,38.3,24.7,38.3c1.6-0.9,3.3-1.5,5.1-1.8c0,0-7.3-37.2-7.4-39.6c-0.1-1.7,0.4-3.3,1.5-4.6c1.1-1.3,2.6-2.1,4.3-2.2
				c1.7-0.1,3.3,0.4,4.6,1.5c1.3,1.1,2.1,2.6,2.2,4.3c0.2,2.4-2.3,40.4-2.3,40.4c0.7,0,1.4,0.1,2.2,0.3
				c3.8-19.3,10.4-52.4,10.6-53.2c1-3.4,4.6-5.3,7.9-4.3c3.4,1,5.3,4.6,4.3,7.9c-0.2,0.8-12.9,32.1-20.3,50.3c1,0.4,1.9,0.9,2.8,1.5
				c0,0,13.4-22.3,14.8-23.9c2.3-2.7,6.3-3,9-0.7c2.7,2.3,3,6.3,0.7,9c-1.4,1.6-21.4,18.5-21.4,18.5c0.8,1,1.5,2.1,2,3.3
				c0,0,38.1-19.1,40.4-20c2.1-0.8,4.6-0.3,6.3,1.2c0.8,0.7,1.5,1.6,1.8,2.7c1.2,3.3-0.5,7-3.8,8.2c-2.3,0.8-43.8,10.7-43.8,10.7
				c0.5,2.1,0.5,4.3,0,6.5c0,0,35,12.3,36.6,13.1c0.5,0.2,1,0.6,1.4,0.9c2.2,1.9,2.8,4.9,1.6,7.5c-0.7,1.5-2,2.7-3.6,3.3
				c-1.6,0.6-3.3,0.5-4.9-0.2c-1.6-0.8-33.8-19-33.8-19c-0.1,0.2-0.3,0.4-0.4,0.6c-0.4,0.5-0.9,0.9-1.3,1.3
				c12.8,15.5,34,41.3,34.4,42C398.8-188.9,398.1-184.9,395.2-182.9z M360.6-237.7c3.8-4.4,3.3-11.1-1.2-14.8
				c-4.4-3.8-11.1-3.3-14.8,1.1c-3.8,4.4-3.3,11.1,1.2,14.8C350.2-232.8,356.9-233.3,360.6-237.7z"/>
			<path fill="#ED1C24" d="M311-317.9c-2.1,1.1-4.6,0.2-5.7-1.8c-0.2-0.5-8.3-21.2-13.2-33.7c-0.8,0.3-1.6,0.6-2.5,0.7
				c0,0,1.8,22.2,1.7,23.5c-0.1,1.1-0.6,2.2-1.4,2.9c-0.8,0.8-1.9,1.1-3.1,1.1c-1.1-0.1-2.2-0.6-2.9-1.4c-0.8-0.8-1.1-1.9-1.1-3.1
				c0.1-1.3,3.5-23.2,3.5-23.2c-1-0.2-2-0.6-3-1.1c0,0-15.4,17.6-16.2,18.5c-0.8,0.8-1.9,1.3-3,1.3c-1.1,0-2.2-0.4-3-1.2
				c-0.1-0.1-0.1-0.1-0.2-0.2c-1.5-1.7-1.4-4.2,0.1-5.8c0.8-0.8,19.1-15.4,19.1-15.4c-0.5-0.7-0.9-1.5-1.2-2.3
				c0,0-36.9,11.5-38.5,11.8c-1.5,0.3-3-0.2-4.1-1.3c-0.5-0.5-0.8-1.2-1-1.9c-0.2-1.1,0-2.2,0.6-3.2c0.6-1,1.6-1.6,2.7-1.9
				c1.6-0.3,39.8-5.4,39.8-5.4c-0.1-0.4-0.1-0.8-0.1-1.2c-11.2,0.7-28,1.7-28.8,1.6c-2.3-0.1-4.1-2.1-4-4.5c0.1-2.3,2.1-4.1,4.5-4
				c0.8,0,17.5,2.8,28.6,4.6c0-0.2,0.1-0.4,0.1-0.5c0,0-18.2-5.8-19.5-6.3c-0.5-0.2-1-0.6-1.3-1c-1.1-1.3-1.4-3.1-0.7-4.7
				c0.5-1,1.3-1.8,2.4-2.2c1.1-0.4,2.2-0.3,3.2,0.2c1.3,0.6,17.2,11.2,17.2,11.2c0.4-0.6,0.9-1.3,1.6-1.8c0.2-0.2,0.3-0.3,0.5-0.4
				c0,0-17.3-23.1-18.1-24.4c-1.2-2-0.6-4.6,1.5-5.8c1.7-1,4-0.7,5.3,0.8c0.2,0.2,0.3,0.4,0.5,0.7c0.8,1.3,13,27.4,13,27.4
				c1.1-0.5,2.3-0.7,3.5-0.7c0,0-1.6-25.2-1.5-26.8c0.1-1.1,0.6-2.2,1.4-2.9c0.8-0.8,1.9-1.1,3.1-1.1c1.1,0.1,2.2,0.6,2.9,1.4
				c0.8,0.8,1.1,1.9,1.1,3.1c-0.1,1.6-5,26.5-5,26.5c0.5,0.1,0.9,0.2,1.4,0.4c4.2-12.4,11.4-33.8,11.6-34.3c1-2.1,3.5-3.1,5.6-2.1
				c2.1,1,3.1,3.5,2.1,5.6c-0.2,0.5-11.3,20.1-17.8,31.5c0.6,0.3,1.2,0.7,1.7,1.2c0,0,10.8-13.5,11.8-14.5c1.7-1.6,4.4-1.4,6,0.3
				c1.6,1.7,1.4,4.4-0.3,6c-1.1,1-15.7,10.4-15.7,10.4c0.5,0.7,0.8,1.5,1,2.4c0,0,26.8-9.4,28.4-9.7c1.5-0.3,3,0.2,4.1,1.3
				c0.5,0.5,0.8,1.2,1,1.9c0.5,2.3-0.9,4.6-3.2,5.1c-1.6,0.4-29.9,3.3-29.9,3.3c0.1,1.4-0.1,2.9-0.6,4.3c0,0,22,11.2,23,11.8
				c0.3,0.2,0.6,0.5,0.9,0.7c1.3,1.4,1.4,3.5,0.4,5.1c-0.6,1-1.6,1.6-2.7,1.9c-1.1,0.2-2.2,0-3.2-0.6c-1-0.6-20.7-15.5-20.7-15.5
				c-0.1,0.1-0.2,0.2-0.3,0.3c-0.3,0.3-0.7,0.5-1,0.8c7.1,11.4,18.9,30.2,19.1,30.7C313.9-321.5,313.1-319,311-317.9z M292.9-357.1
				c2.9-2.6,3.1-7,0.5-9.9c-2.6-2.9-7-3.1-9.9-0.5c-2.9,2.6-3.1,7-0.5,9.9C285.6-354.8,290-354.5,292.9-357.1z"/>
		</g>
		<g>
			<path fill="#FFD400" d="M48.7-332.7c-2.3-4-0.9-9.1,3-11.4c0.9-0.5,24.7-9.6,48.7-20.5c-0.8-1.5-1.3-3.1-1.7-4.7
				c0,0-87.7,5.7-90.4,5.7c-2.2,0-4.3-0.9-5.9-2.4c-1.6-1.6-2.4-3.7-2.4-5.9c0-2.2,0.9-4.3,2.4-5.9c1.6-1.6,3.7-2.4,5.9-2.4
				c2.6,0,90.2,4.5,90.2,4.5c0.3-2,0.9-4.1,1.8-5.9c0,0-36.2-28.4-37.9-29.9c-1.7-1.5-2.6-3.5-2.8-5.7c-0.1-2.2,0.6-4.4,2.1-6
				c0.1-0.1,0.2-0.2,0.3-0.4c3.1-3.1,8.1-3.3,11.4-0.3c1.7,1.5,32.1,35.9,32.1,35.9c1.3-1.1,2.8-1.9,4.3-2.5
				c0,0-26.3-71.2-27.1-74.2c-0.8-2.9,0-6,2.2-8.1c1-1,2.3-1.8,3.7-2.1c2.1-0.6,4.4-0.3,6.3,0.8c1.9,1.1,3.3,2.9,3.9,5
				c0.8,3.1,14.7,77.5,14.7,77.5c0.8-0.2,1.6-0.2,2.4-0.3c-2.5-21.9-6.1-54.7-6.1-56.3c0-4.6,3.7-8.3,8.3-8.3c4.6,0,8.3,3.7,8.3,8.3
				c0,1.6-3.7,34.7-6.2,56.6c0.4,0.1,0.7,0.1,1.1,0.2c0,0,22.9-69.1,23.9-71.6c0.4-1,1-1.9,1.8-2.7c2.4-2.4,5.9-3.1,9.1-1.8
				c2.1,0.8,3.7,2.4,4.5,4.5c0.9,2.1,0.9,4.3,0,6.4c-1,2.5-33.7,67.5-33.7,67.5c1.3,0.8,2.6,1.7,3.7,2.9c0.3,0.3,0.6,0.6,0.9,1
				c0,0,43.5-36.3,45.9-37.9c3.8-2.6,9-1.6,11.6,2.3c2.2,3.3,1.8,7.7-1,10.5c-0.4,0.4-0.8,0.7-1.2,1c-2.4,1.6-52.4,28.4-52.4,28.4
				c1,2.2,1.7,4.5,1.8,6.9c0,0,78.5-5.7,81.7-5.7c2.2,0,4.3,0.9,5.9,2.4c1.6,1.6,2.4,3.7,2.4,5.9c0,2.2-0.9,4.3-2.4,5.9
				c-1.6,1.6-3.7,2.4-5.9,2.4c-3.2,0-81.8-7.1-81.8-7.1c-0.1,0.9-0.3,1.9-0.6,2.8c24.8,6.9,67.3,18.8,68.3,19.2
				c4.3,1.7,6.4,6.5,4.8,10.8c-1.7,4.3-6.5,6.4-10.8,4.8c-1-0.4-40.6-20.1-63.6-31.6c-0.6,1.2-1.3,2.4-2.2,3.5
				c0,0,36.4,28.5,38.4,30.5c3.2,3.2,3.2,8.5,0,11.8c-3.2,3.2-8.5,3.2-11.8,0c-2-2-30.7-38.5-30.7-38.5c-1.4,1-2.9,1.7-4.5,2.3
				c0,0,22.6,56.2,23.5,59.3c0.8,2.9,0,6-2.1,8.1c-1,1-2.3,1.7-3.7,2.1c-4.4,1.2-9-1.4-10.2-5.8c-0.9-3.1-11-62.8-11-62.8
				c-2.8,0.4-5.7,0.2-8.5-0.7c0,0-29.8,62.5-30.9,64.5c-0.4,0.7-0.8,1.3-1.4,1.8c-2.6,2.6-6.7,3.2-10,1.3c-1.9-1.1-3.3-2.9-3.9-5
				c-0.6-2.1-0.3-4.4,0.8-6.3c1.2-2,38.4-60.3,38.4-60.3c-0.2-0.2-0.5-0.4-0.7-0.6c-0.6-0.6-1.1-1.2-1.6-1.9
				C80.8-346.4,61-330.2,60-329.7C56.1-327.4,51-328.8,48.7-332.7z M107.7-363.4c5.4,5.4,14.1,5.4,19.5,0c5.4-5.4,5.4-14.1,0-19.5
				c-5.4-5.4-14.1-5.4-19.5,0C102.3-377.5,102.3-368.7,107.7-363.4z"/>
			<path fill="#A6CE39" d="M228.1-278c-2.9,2-6.9,1.3-8.9-1.6c-0.5-0.7-16.5-29.9-26.2-47.5c-1.1,0.7-2.3,1.2-3.5,1.5
				c0,0,6.9,32.7,7.1,34.7c0.1,1.7-0.4,3.3-1.5,4.6c-1.1,1.3-2.6,2.1-4.3,2.2c-1.7,0.1-3.3-0.4-4.6-1.5c-1.3-1.1-2.1-2.6-2.2-4.3
				c-0.2-2,0.7-35.2,0.7-35.2c-1.6-0.1-3.1-0.4-4.6-1.1c0,0-19.5,29.2-20.6,30.6c-1,1.4-2.5,2.2-4.2,2.5c-1.7,0.2-3.4-0.2-4.7-1.2
				c-0.1-0.1-0.2-0.2-0.3-0.2c-2.6-2.2-3-6-0.9-8.7c1.1-1.4,25.5-26.6,25.5-26.6c-0.9-1-1.6-2-2.2-3.1c0,0-52.7,24.2-55,25.1
				c-2.1,0.8-4.6,0.3-6.3-1.2c-0.8-0.7-1.5-1.7-1.9-2.7c-0.6-1.6-0.5-3.3,0.2-4.9c0.7-1.5,2-2.7,3.6-3.3
				c2.3-0.8,58.2-15.8,58.2-15.8c-0.2-0.6-0.3-1.2-0.4-1.8c-16.5,3.2-41.3,7.9-42.6,8c-3.5,0.3-6.6-2.4-6.8-5.9
				c-0.3-3.5,2.4-6.6,5.9-6.8c1.3-0.1,26.6,0.8,43.5,1.3c0-0.3,0-0.6,0.1-0.8c0,0-28.3-5-30.2-5.7c-0.8-0.3-1.5-0.7-2.2-1.2
				c-2-1.7-2.7-4.3-1.9-6.8c0.5-1.6,1.6-2.9,3.2-3.7c1.5-0.8,3.2-0.9,4.9-0.4c2,0.6,27.7,13.3,27.7,13.3c0.5-1,1.2-2.1,2-3
				c0.2-0.3,0.5-0.5,0.7-0.7c0,0-30.2-31-31.6-32.8c-2.2-2.7-1.7-6.8,1-8.9c2.4-1.9,5.8-1.8,8.1,0.1c0.3,0.3,0.6,0.6,0.9,0.9
				c1.4,1.7,24.7,38.3,24.7,38.3c1.6-0.9,3.3-1.5,5.1-1.8c0,0-7.3-37.2-7.4-39.6c-0.1-1.7,0.4-3.3,1.5-4.6c1.1-1.3,2.6-2.1,4.3-2.2
				c1.7-0.1,3.3,0.4,4.6,1.5c1.3,1.1,2.1,2.6,2.2,4.3c0.2,2.4-2.3,40.4-2.3,40.4c0.7,0,1.4,0.1,2.2,0.3
				c3.8-19.3,10.4-52.4,10.6-53.2c1-3.4,4.6-5.3,7.9-4.3c3.4,1,5.3,4.6,4.3,7.9c-0.2,0.8-12.9,32.1-20.3,50.3c1,0.4,1.9,0.9,2.8,1.5
				c0,0,13.4-22.3,14.8-23.9c2.3-2.7,6.3-3,9-0.7c2.7,2.3,3,6.3,0.7,9c-1.4,1.6-21.4,18.5-21.4,18.5c0.8,1,1.5,2.1,2,3.3
				c0,0,38.1-19.1,40.4-20c2.1-0.8,4.6-0.3,6.3,1.2c0.8,0.7,1.5,1.6,1.8,2.7c1.2,3.3-0.5,7-3.8,8.2c-2.3,0.8-43.8,10.7-43.8,10.7
				c0.5,2.1,0.5,4.3,0,6.5c0,0,35,12.3,36.6,13.1c0.5,0.2,1,0.6,1.4,0.9c2.2,1.9,2.8,4.9,1.6,7.5c-0.7,1.5-2,2.7-3.6,3.3
				c-1.6,0.6-3.3,0.5-4.9-0.2c-1.6-0.8-33.8-19-33.8-19c-0.1,0.2-0.3,0.4-0.4,0.6c-0.4,0.5-0.9,0.9-1.3,1.3
				c12.8,15.5,34,41.3,34.4,42C231.7-283.9,231-280,228.1-278z M193.5-332.8c3.8-4.4,3.3-11.1-1.2-14.8c-4.4-3.8-11.1-3.3-14.8,1.1
				c-3.8,4.4-3.3,11.1,1.2,14.8C183.1-327.9,189.8-328.4,193.5-332.8z"/>
		</g>
	</g>
</pattern>
<g id="stick">
	<path fill="#FFFFFF" d="M117.5,741.1C79.8,404.3,294.5,170.4,527,170.4c208.4,0,461.6,243,411.2,570.7"/>
	<g>
		<path fill="#ED1E79" d="M134.3,741.1c-3.5-31.8-5-63.7-4-95.7c0.4-14.9,1.4-29.8,2.9-44.7c0.4-3.7,0.8-7.4,1.2-11.1
			c0.2-1.7,0.4-3.4,0.6-5.1c0.1-0.7,0.2-1.5,0.3-2.2c-0.5,3.6,0,0.1,0.1-0.6c1-7.2,2.2-14.4,3.5-21.6c4.9-27.5,11.8-54.6,20.8-81
			c2.2-6.4,4.5-12.8,6.9-19.2c1.1-2.9,2.3-5.9,3.5-8.8c0.7-1.7,1.4-3.3,2-5c0.1-0.3,1-2.4,0.2-0.5c-0.9,2.2,0.5-1.3,0.7-1.7
			c5.2-12.1,10.9-24,17-35.7c11.8-22.4,25.3-43.9,40.4-64.1c0.9-1.2,1.8-2.3,2.6-3.5c1.8-2.4,0,0-0.3,0.4c0.4-0.5,0.8-1,1.1-1.5
			c2-2.6,4.1-5.2,6.2-7.7c3.9-4.8,7.9-9.4,12-14.1c7.9-8.9,16.2-17.5,24.8-25.8c8.6-8.3,17.6-16.2,26.9-23.7
			c2.1-1.7,4.3-3.4,6.5-5.1c-3.6,2.8,0.6-0.4,1.3-1c1.3-0.9,2.5-1.9,3.8-2.8c4.7-3.5,9.5-6.9,14.4-10.1c19-12.8,39.1-24,60-33.3
			c1.2-0.5,2.4-1.1,3.7-1.6c0.7-0.3,1.4-0.6,2.1-0.9c-0.4,0.1-3.6,1.5-0.9,0.4c2.6-1.1,5.3-2.1,7.9-3.2c5.3-2,10.6-4,16-5.8
			c10.6-3.5,21.3-6.6,32.1-9.1c5.5-1.3,11-2.5,16.6-3.5c2.8-0.5,5.6-1,8.3-1.5c1-0.2,7.8-1.9,8.4-1.3c-0.2-0.3-3.7,0.5-1.1,0.2
			c0.7-0.1,1.5-0.2,2.2-0.3c1.1-0.1,2.2-0.3,3.4-0.4c3-0.3,6-0.6,9-0.9c5.6-0.5,11.3-0.8,16.9-1c10.6-0.4,21.1-0.3,31.7,0.5
			c5.1,0.4,10.2,0.9,15.3,1.5c0.5,0.1,1,0.1,1.5,0.2c2.2,0.2-3.6-0.5-1.4-0.2c1.2,0.2,2.4,0.3,3.6,0.5c2.6,0.4,5.1,0.8,7.7,1.3
			c21.1,3.7,41.8,9.6,61.9,17.2c2.4,0.9,4.8,1.8,7.2,2.8c1.2,0.5,2.4,1,3.6,1.5c0.6,0.3,1.5,0.5,2.1,0.9c-0.8-0.4-3-1.3-0.9-0.4
			c5.1,2.2,10.3,4.5,15.3,7c10.3,4.9,20.4,10.3,30.2,16.1c10.1,5.9,19.9,12.2,29.5,18.9c4.9,3.4,9.7,6.9,14.4,10.5
			c1.1,0.8,2.2,1.7,3.3,2.5c1.5,1.1-1-0.8-1-0.8c0.6,0.5,1.3,1,1.9,1.5c2.5,2,5,4,7.5,6c18.9,15.5,36.6,32.4,52.9,50.5
			c8.3,9.2,16.3,18.7,24,28.5c1.9,2.4,0,0-0.3-0.4c0.5,0.7,1,1.4,1.5,2c0.9,1.2,1.8,2.4,2.7,3.6c1.9,2.6,3.8,5.2,5.7,7.8
			c3.8,5.2,7.4,10.5,11,15.9c14.5,21.9,27.3,45,38.3,68.9c1.3,2.8,2.6,5.7,3.8,8.6c0.6,1.4,1.2,2.9,1.9,4.3c1,2.3-1.1-2.6-0.1-0.3
			c0.4,1,0.9,2.1,1.3,3.1c2.5,6.1,4.8,12.2,7.1,18.3c4.7,12.9,8.9,26,12.5,39.3c3.7,13.5,6.9,27.2,9.4,41c1.3,6.8,2.4,13.6,3.4,20.4
			c0.1,0.8,0.9,6.7,0.4,2.7c0.2,1.7,0.4,3.3,0.6,5c0.4,3.6,0.8,7.2,1.2,10.8c3,29.8,3.4,59.8,1.4,89.6c-0.5,7.2-1.1,14.5-1.9,21.7
			c-0.4,3.9-0.9,7.8-1.4,11.7c-0.2,2,0-0.2,0.1-0.5c-0.1,1-0.3,2.1-0.4,3.1c-0.3,2.1-0.6,4.2-0.9,6.3c-1.3,8.6,2.2,18.5,11.7,20.7
			c8,1.8,19.2-2.4,20.7-11.7c9.5-62.5,9.3-125.7-2.2-188c-10.3-55.4-30-109.2-57.4-158.5c-25.6-46-58.4-88.5-96.6-124.7
			c-35.5-33.7-76-62.7-120.2-83.8c-41.3-19.7-85.5-33-131.3-36.2c-46-3.3-93.4,3.9-137,18.5c-46.8,15.7-89.8,40.1-128.3,70.9
			c-39.7,31.8-73.5,70.9-100.7,113.8c-29.6,46.7-51.3,98.5-65.1,151.9C100.2,569,94.4,631.1,97,692.5c0.7,16.2,2,32.5,3.7,48.6
			c1,8.7,7,17.2,16.8,16.8C125.8,757.6,135.3,750.5,134.3,741.1L134.3,741.1z"/>
	</g>
</g>
<path class="rect" fill="#00A99D" stroke="#00A99D" stroke-width="4.6391" stroke-miterlimit="10" d="M165.6,936.6l-63.1,5.8
	c-8.4,0.8-15.9-5.5-16.6-13.9L71.4,754.7c-0.7-8.3,5.5-15.7,13.8-16.5l63.1-5.8c8.4-0.8,15.9,5.5,16.6,13.9l14.5,173.8
	C180.1,928.5,173.9,935.8,165.6,936.6z"/>
<path class="rect" fill="#00A99D" stroke="#00A99D" stroke-width="4.6391" stroke-miterlimit="10" d="M952.4,953.5l-63.1-5.8
	c-8.3-0.8-14.5-8.1-13.8-16.5L890,757.4c0.7-8.4,8.2-14.7,16.6-13.9l63.1,5.8c8.3,0.8,14.5,8.1,13.8,16.5L969,939.5
	C968.3,948,960.9,954.2,952.4,953.5z"/>
<polygon id="earbird-left" fill="#00A99D" points="228.3,946.9 169.2,953.4 145,712.6 204.1,706 "/>
<polygon id="earbird-right" fill="#00A99D" points="886.1,964.1 826.9,958.7 847,717.4 906.2,722.9 "/>
<g>
	<path fill="#FFFFFF" d="M204.9,357.3c53.9-110.4,209.4-187.2,318.9-187.2c124.3,0,258.8,93.3,321.2,186.3"/>
	<g>
		<path fill="url(#Bugaboo)" d="M236,375.5c7.1-14.5,15.8-28.1,25.6-40.9c-1.9,2.4-3.8,4.9-5.6,7.3c17.4-22.5,38-42.2,60.4-59.5
			c-2.4,1.9-4.9,3.8-7.3,5.6c29.5-22.7,62.1-41.3,96.3-55.8c-2.9,1.2-5.7,2.4-8.6,3.6c32.3-13.6,66.1-23.7,100.9-28.4
			c-3.2,0.4-6.4,0.9-9.6,1.3c23.6-3.1,47.2-3.2,70.7-0.1c-3.2-0.4-6.4-0.9-9.6-1.3c30.4,4.1,59.9,12.8,88.1,24.6
			c-2.9-1.2-5.7-2.4-8.6-3.6c37.4,15.8,72.5,36.9,104.6,61.7c-2.4-1.9-4.9-3.8-7.3-5.6c29.8,23.2,57.2,49.6,80.4,79.5
			c-1.9-2.4-3.8-4.9-5.6-7.3c4.5,5.9,8.9,11.9,13.1,18.1c5.3,7.8,12.2,14,21.5,16.5c8.6,2.4,20.1,1.3,27.7-3.6
			c15.5-10,24.2-32.6,12.9-49.3c-33-48.9-75.9-89.6-123.9-123.5c-23.5-16.6-48.4-31.2-74.5-43.2c-27.7-12.7-56.4-23.5-86.3-29.8
			c-27.4-5.8-55.9-8.9-83.9-7.1c-24.8,1.6-49.6,5.8-73.6,12.2c-49.8,13.3-98.4,35.4-141.1,64.4c-43.9,29.8-84,67-111,113
			c-2.8,4.8-5.5,9.8-7.9,14.8c-4.3,8.8-6.3,18.1-3.6,27.7c2.3,8.4,8.8,17.4,16.5,21.5C203,397,227.1,393.5,236,375.5L236,375.5z"/>
	</g>
</g>
</svg>
